# xmcd
#
# Track frame offsets: 
#        150
#        22750
#        41752
#        65442
#        118362
#        184145
#        214962
#
# Disc length: 3216 seconds
#
# Revision: 1
# Processed by: cddbd v1.5.2PL0 Copyright (c) Steve Scherf et al.
# Submitted via: ExactAudioCopy v0.99pb4
#
DISCID=640c8e07
DTITLE=Various Artist - The Story of Jazz Vol.9 - The Avant-Garde and
DTITLE=Free
DYEAR=1900
DGENRE=Jazz
TTITLE0=Ornette Coleman - Lovely Woman
TTITLE1=Don Cherry - The Invisible
TTITLE2=Cecil Taylor - Cindy's Main Mood
TTITLE3=Archie Shepp - Cell Walk for Celeste
TTITLE4=Jackie McLean - Ghost Town
TTITLE5=Albert Ayler - Children
TTITLE6=Art Ensemble of Chicago - That The Evening Sky Fell Through Th
TTITLE6=e Glass Wall and We Stood Alone Somewhere?
EXTD=
EXTT0=
EXTT1=
EXTT2=
EXTT3=
EXTT4=
EXTT5=
EXTT6=
PLAYORDER=
